<?xml version="1.0" encoding="utf-8"?>
<!-- Generator: Adobe Illustrator 24.1.2, SVG Export Plug-In . SVG Version: 6.00 Build 0)  -->
<svg version="1.1" id="Layer_1" xmlns="http://www.w3.org/2000/svg" xmlns:xlink="http://www.w3.org/1999/xlink" x="0px" y="0px"
	 viewBox="0 0 400 400" style="enable-background:new 0 0 400 400;" xml:space="preserve">
<style type="text/css">
	.st0{fill:#263238;}
</style>
<desc>Created with Fabric.js 3.6.2</desc>
<g id="telegram" transform="matrix(6.25 0 0 6.25 200 209.37)">
	<path class="st0" d="M8.7,12.7c-0.4,0-0.8-0.1-1.3-0.4l-10.8-8c-0.1-0.1-0.2-0.2-0.2-0.4c0-0.1,0.1-0.3,0.2-0.4L9.3-8
		C9.5-8.2,9.8-8.2,10-8c0.2,0.2,0.2,0.5,0,0.7L-2.3,3.9l10.3,7.6c0.3,0.1,0.7,0.3,1.1,0.2c0.3-0.2,0.5-0.6,0.6-1L13.9-10
		c0.2-0.7,0.1-1.2-0.2-1.5c-0.2-0.2-0.6-0.2-0.9,0L-13-1.6c-0.8,0.3-1,0.6-1,0.8c0,0.1,0.2,0.3,0.7,0.4l6.4,2l7-4.4
		C0.3-3,0.6-3,0.7-2.7S0.8-2.2,0.6-2l-7.2,4.5C-6.7,2.6-6.9,2.6-7,2.6l-6.6-2.1c-1.2-0.4-1.4-1-1.4-1.3c0-0.5,0.3-1.2,1.7-1.7
		l25.7-9.9c0.7-0.3,1.4-0.3,2,0.2c0.6,0.5,0.8,1.4,0.5,2.5l-4.4,20.6c-0.2,0.9-0.6,1.5-1.1,1.7C9.2,12.6,8.9,12.7,8.7,12.7z"/>
</g>
<g id="telegram_1_" transform="matrix(6.25 0 0 6.25 200 209.37)">
	<path class="st0" d="M8.7,12.7c-0.4,0-0.8-0.1-1.3-0.4l-6.7-5C0.4,7.1,0.4,6.8,0.5,6.6C0.7,6.4,1,6.3,1.2,6.5l6.7,4.9
		c0.3,0.1,0.7,0.3,1.1,0.2c0.3-0.2,0.5-0.6,0.6-1L13.9-10c0.2-0.7,0.1-1.2-0.2-1.5c-0.2-0.2-0.6-0.2-0.9,0L-13-1.6
		c-0.8,0.3-1,0.6-1,0.8c0,0.1,0.2,0.3,0.7,0.4l6.6,2.1c0.2,0,0.3,0.2,0.3,0.3l2.3,7.5C-4.1,9.6-4,9.7-4,9.9c0,0.1,0.1,0.3,0.1,0.3
		c0,0,0.1,0,0.3,0c0.4,0,0.6-0.2,1-0.5L-1,8.1c0.2-0.2,0.5-0.2,0.7,0c0.2,0.2,0.2,0.5,0,0.7l-1.6,1.6c-0.4,0.4-0.8,0.8-1.7,0.8
		c-1,0-1.2-0.4-1.4-1C-5,10-5,9.9-5.1,9.7l-2.2-7.2l-6.3-2c-1.2-0.4-1.4-1-1.4-1.3c0-0.5,0.3-1.2,1.7-1.7l25.7-9.9
		c0.7-0.3,1.4-0.3,2,0.2c0.6,0.5,0.8,1.4,0.5,2.5l-4.4,20.6c-0.2,0.9-0.6,1.5-1.1,1.7C9.2,12.6,8.9,12.7,8.7,12.7z"/>
</g>
<g id="telegram_2_" transform="matrix(6.25 0 0 6.25 212.5 187.5)">
	<path class="st0" d="M0.5,0c0,0.3-0.2,0.5-0.5,0.5l0,0c-0.3,0-0.5-0.2-0.5-0.5l0,0c0-0.3,0.2-0.5,0.5-0.5l0,0
		C0.3-0.5,0.5-0.3,0.5,0L0.5,0z"/>
</g>
</svg>
